<?xml version="1.0" standalone="no"?><svg xmlns="http://www.w3.org/2000/svg" viewBox="0 0 1440 320"><path fill="#ffffff" fill-opacity="1" d="M0,192L26.7,186.7C53.3,181,107,171,160,144C213.3,117,267,75,320,64C373.3,53,427,75,480,112C533.3,149,587,203,640,234.7C693.3,267,747,277,800,234.7C853.3,192,907,96,960,85.3C1013.3,75,1067,149,1120,176C1173.3,203,1227,181,1280,165.3C1333.3,149,1387,139,1413,133.3L1440,128L1440,0L1413.3,0C1386.7,0,1333,0,1280,0C1226.7,0,1173,0,1120,0C1066.7,0,1013,0,960,0C906.7,0,853,0,800,0C746.7,0,693,0,640,0C586.7,0,533,0,480,0C426.7,0,373,0,320,0C266.7,0,213,0,160,0C106.7,0,53,0,27,0L0,0Z"></path></svg>